<?xml version="1.0" encoding="UTF-8" standalone="no"?>
<svg
   xmlns:dc="http://purl.org/dc/elements/1.1/"
   xmlns:cc="http://creativecommons.org/ns#"
   xmlns:rdf="http://www.w3.org/1999/02/22-rdf-syntax-ns#"
   xmlns:svg="http://www.w3.org/2000/svg"
   xmlns="http://www.w3.org/2000/svg"
   viewBox="0 0 122.23387 122.23387"
   height="122.23387"
   width="122.23387"
   xml:space="preserve"
   id="svg2"
   version="1.1"><metadata
     id="metadata8"><rdf:RDF><cc:Work
         rdf:about=""><dc:format>image/svg+xml</dc:format><dc:type
           rdf:resource="http://purl.org/dc/dcmitype/StillImage" /></cc:Work></rdf:RDF></metadata><defs
     id="defs6"><clipPath
       id="clipPath18"
       clipPathUnits="userSpaceOnUse"><path
         id="path16"
         d="M 0,91.675 H 91.675 V 0 H 0 Z" /></clipPath></defs><g
     transform="matrix(1.3333333,0,0,-1.3333333,0,122.23387)"
     id="g10"><g
       id="g12"><g
         clip-path="url(#clipPath18)"
         id="g14"><g
           transform="translate(64.7648,4e-4)"
           id="g20"><path
             id="path22"
             style="fill:#0a3579;fill-opacity:1;fill-rule:nonzero;stroke:none"
             d="m 0,0 h -37.854 c -14.801,0 -26.911,12.109 -26.911,26.91 v 37.855 c 0,14.8 12.11,26.91 26.911,26.91 H 0 c 14.801,0 26.91,-12.11 26.91,-26.91 V 26.91 C 26.91,12.109 14.801,0 0,0" /></g><g
           transform="translate(37.133,60.0902)"
           id="g24"><path
             id="path26"
             style="fill:#ff9800;fill-opacity:1;fill-rule:nonzero;stroke:none"
             d="m 0,0 v -17.71 c 0.395,0.334 0.735,0.737 0.942,1.231 l 0.642,1.515 c 0.855,2.03 2.31,3.714 4.126,4.864 L 5.71,0 2.854,2.854 Z" /></g><g
           transform="translate(31.3879,65.392)"
           id="g28"><path
             id="path30"
             style="fill:#4caf50;fill-opacity:1;fill-rule:nonzero;stroke:none"
             d="M 0,0 C -3.16,-3.161 -4.199,-7.63 -3.141,-11.662 L 8.6,0.078 20.341,-11.662 C 21.399,-7.63 20.36,-3.161 17.2,0 17.165,0.035 17.12,0.053 17.084,0.089 h 12.45 c -2.102,3.599 -5.997,6.025 -10.467,6.025 -2.222,0 -4.299,-0.603 -6.088,-1.648 l 10.426,10.426 c -1.016,0.266 -2.06,0.4 -3.104,0.4 -3.098,0 -6.195,-1.178 -8.558,-3.541 C 10.169,10.177 9.125,8.277 8.6,6.271 c -0.524,2.006 -1.569,3.906 -3.142,5.48 -2.364,2.363 -5.461,3.541 -8.559,3.541 -1.044,0 -2.087,-0.134 -3.104,-0.4 L 4.221,4.466 c -1.788,1.045 -3.867,1.648 -6.088,1.648 -4.469,0 -8.364,-2.426 -10.467,-6.025 H 0.116 C 0.081,0.053 0.036,0.035 0,0" /></g><g
           transform="translate(39.0383,17.6712)"
           id="g32"><path
             id="path34"
             style="fill:#ff9800;fill-opacity:1;fill-rule:nonzero;stroke:none"
             d="m 0,0 -4.298,4.295 -4.297,4.295 2.463,2.464 4.298,-4.295 4.297,-4.294 z m 15.249,16.514 c -0.046,-1.844 -0.771,-3.575 -2.08,-4.883 -1.352,-1.349 -3.148,-2.09 -5.062,-2.09 -1.911,0 -3.708,0.741 -5.059,2.09 -1.354,1.355 -2.098,3.151 -2.098,5.062 0,1.911 0.744,3.707 2.097,5.061 1.347,1.345 3.102,2.025 4.87,2.072 l 6.684,6.686 c -1.468,1.077 -3.213,1.692 -5.044,1.692 -0.622,0 -1.253,-0.067 -1.873,-0.2 C 4.83,31.399 2.454,29.439 1.324,26.763 L 0.683,25.246 c -0.777,-1.844 -2.573,-3.076 -4.571,-3.142 -5.076,-0.169 -9.609,-3.311 -11.543,-8.005 -1.977,-4.8 -0.903,-10.292 2.734,-13.995 l 3.987,-4.058 c 1.821,-1.853 4.132,-3.107 6.683,-3.622 2.526,-0.515 5.174,-0.256 7.566,0.741 4.671,1.951 7.797,6.477 7.965,11.529 0.067,2.017 1.312,3.826 3.173,4.61 l 1.49,0.628 c 2.682,1.127 4.643,3.504 5.247,6.357 0.524,2.469 -0.06,4.902 -1.508,6.878 z" /></g><g
           transform="translate(75.717,54.8851)"
           id="g36"><path
             id="path38"
             style="fill:#bdbdbd;fill-opacity:1;fill-rule:nonzero;stroke:none"
             d="M 0,0 1.746,-1.745 4.21,0.72 2.464,2.464 Z" /></g><g
           transform="translate(70.131,65.3929)"
           id="g40"><path
             id="path42"
             style="fill:#bdbdbd;fill-opacity:1;fill-rule:nonzero;stroke:none"
             d="m 0,0 -1.75,1.748 -2.464,-2.464 1.75,-1.748 z" /></g><g
           transform="translate(49.173,41.1898)"
           id="g44"><path
             id="path46"
             style="fill:#bdbdbd;fill-opacity:1;fill-rule:nonzero;stroke:none"
             d="M 0,0 C 1.107,-0.326 2.158,-0.892 3.03,-1.763 L 3.034,-1.765 C 3.889,-2.619 4.469,-3.663 4.804,-4.79 L 20.2,10.596 15.396,15.4 Z" /></g><g
           transform="translate(32.9064,28.725)"
           id="g48"><path
             id="path50"
             style="fill:#0a3579;fill-opacity:1;fill-rule:nonzero;stroke:none"
             d="m 0,0 -2.463,-2.464 4.297,-4.295 4.298,-4.295 2.463,2.465 -4.297,4.294 z" /></g><g
           transform="translate(45.1799,36.3285)"
           id="g52"><path
             id="path54"
             style="fill:#ff9800;fill-opacity:1;fill-rule:nonzero;stroke:none"
             d="m 0,0 c 0.542,0.541 1.254,0.812 1.967,0.812 0.71,0 1.42,-0.27 1.962,-0.808 L 3.933,0 c 0.525,-0.525 0.814,-1.223 0.814,-1.965 0,-0.741 -0.289,-1.438 -0.814,-1.964 -1.084,-1.083 -2.849,-1.083 -3.933,0 l -0.002,0.002 c -0.523,0.526 -0.812,1.222 -0.812,1.963 0,0.741 0.289,1.439 0.814,1.964 m -3.406,-1.964 c 0,-1.432 0.558,-2.781 1.571,-3.793 2.032,-2.032 5.574,-2.025 7.6,-0.004 1.014,1.014 1.574,2.363 1.574,3.797 0,1.435 -0.56,2.781 -1.574,3.795 -1.048,1.047 -2.423,1.57 -3.8,1.57 -1.375,0 -2.751,-0.523 -3.797,-1.57 -1.015,-1.014 -1.574,-2.362 -1.574,-3.795" /></g><g
           transform="translate(80.3078,63.6185)"
           id="g56"><path
             id="path58"
             style="fill:#ff9800;fill-opacity:1;fill-rule:nonzero;stroke:none"
             d="m 0,0 c 0,1.041 -0.405,2.022 -1.144,2.76 -1.478,1.474 -4.048,1.474 -5.522,0 l -6.71,-6.711 0.036,-0.411 c 0.062,-0.717 -0.132,-1.424 -0.537,-2.003 l 3.606,-3.607 c 0.58,0.406 1.288,0.596 2,0.54 l 0.417,-0.038 6.71,6.709 C -0.405,-2.023 0,-1.042 0,0" /></g><g
           transform="translate(54.6603,57.8998)"
           id="g60"><path
             id="path62"
             style="fill:#4caf50;fill-opacity:1;fill-rule:nonzero;stroke:none"
             d="m 0,0 c 0,-1.315 1.066,-2.381 2.381,-2.381 1.315,0 2.382,1.066 2.382,2.381 0,1.314 -1.067,2.381 -2.382,2.381 C 1.066,2.381 0,1.314 0,0" /></g><g
           transform="translate(21.0632,54.517)"
           id="g64"><path
             id="path66"
             style="fill:#ff9800;fill-opacity:1;fill-rule:nonzero;stroke:none"
             d="M 0,0 C 1.315,0 2.381,1.066 2.381,2.382 2.381,3.696 1.315,4.763 0,4.763 -1.315,4.763 -2.381,3.696 -2.381,2.382 -2.381,1.066 -1.315,0 0,0" /></g><g
           transform="translate(67.6388,30.2064)"
           id="g68"><path
             id="path70"
             style="fill:#ff9800;fill-opacity:1;fill-rule:nonzero;stroke:none"
             d="m 0,0 c -1.314,0 -2.381,-1.065 -2.381,-2.381 0,-1.315 1.067,-2.381 2.381,-2.381 1.315,0 2.382,1.066 2.382,2.381 C 2.382,-1.065 1.315,0 0,0" /></g><g
           transform="translate(18.1408,23.5707)"
           id="g72"><path
             id="path74"
             style="fill:#4caf50;fill-opacity:1;fill-rule:nonzero;stroke:none"
             d="m 0,0 c -1.315,0 -2.381,-1.066 -2.381,-2.382 0,-1.314 1.066,-2.381 2.381,-2.381 1.315,0 2.381,1.067 2.381,2.381 C 2.381,-1.066 1.315,0 0,0" /></g></g></g></g></svg>