<?xml version="1.0" standalone="no"?>
<!DOCTYPE svg PUBLIC "-//W3C//DTD SVG 20010904//EN"
 "http://www.w3.org/TR/2001/REC-SVG-20010904/DTD/svg10.dtd">
<svg version="1.0" xmlns="http://www.w3.org/2000/svg"
 width="260.000000pt" height="260.000000pt" viewBox="0 0 260.000000 260.000000"
 preserveAspectRatio="xMidYMid meet">
<metadata>
Created by potrace 1.11, written by Peter Selinger 2001-2013
</metadata>
<g transform="translate(0.000000,260.000000) scale(0.100000,-0.100000)"
fill="#000000" stroke="none">
<path d="M2135 2361 c-16 -10 -84 -73 -150 -140 -109 -110 -121 -125 -132
-173 l-11 -53 62 -63 63 -63 49 12 c43 10 64 26 177 138 139 137 156 160 159
219 4 106 -127 180 -217 123z"/>
<path d="M1863 2316 c-29 -28 -42 -46 -32 -46 9 0 21 -11 28 -24 13 -23 33
-28 48 -11 4 4 1 5 -7 1 -8 -4 -6 0 4 8 11 9 24 16 30 16 5 0 7 3 3 6 -3 4 2
14 12 23 18 15 18 17 -10 44 l-28 29 -48 -46z"/>
<path d="M2260 1979 c0 -5 -3 -8 -7 -6 -5 3 -14 -1 -21 -9 -7 -8 -10 -14 -6
-14 4 0 -3 -9 -16 -20 l-23 -20 31 -28 30 -28 42 44 42 44 -23 24 c-23 25 -49
32 -49 13z"/>
<path d="M1487 1690 c-237 -237 -275 -279 -262 -290 8 -7 15 -10 15 -6 0 3 8
-1 18 -9 9 -8 20 -15 25 -15 11 0 44 -34 40 -42 -2 -4 6 -13 17 -21 11 -7 17
-17 13 -20 -3 -4 0 -7 7 -7 7 0 10 -3 7 -7 -4 -3 -2 -12 4 -19 9 -11 72 48
292 267 277 277 281 281 257 294 -14 7 -25 17 -25 22 1 13 -37 53 -50 53 -6 0
-18 11 -25 25 -7 14 -20 25 -27 25 -8 0 -12 4 -9 9 3 5 0 11 -7 14 -6 2 -137
-120 -290 -273z"/>
<path d="M1095 1717 c-108 -28 -181 -93 -232 -207 -56 -121 -83 -142 -211
-160 -133 -18 -210 -53 -294 -133 -163 -157 -194 -422 -69 -607 37 -56 231
-252 284 -289 141 -96 334 -105 489 -24 155 81 241 217 262 415 3 26 12 60 20
76 20 39 76 84 123 101 185 64 278 274 198 448 -13 29 -26 53 -28 53 -9 0
-236 -230 -247 -249 -5 -11 -10 -29 -10 -41 0 -11 -9 -38 -20 -60 -54 -107
-137 -154 -256 -148 -65 3 -78 7 -130 43 -134 92 -156 267 -49 393 32 38 82
66 147 82 37 10 63 29 144 109 55 54 110 109 123 124 l24 27 -56 26 c-68 31
-144 38 -212 21z m-341 -936 l159 -159 -47 -47 -48 -47 -160 160 -160 161 42
45 c24 25 46 46 49 46 4 0 78 -72 165 -159z"/>
<path d="M1052 1339 c-69 -20 -132 -114 -132 -195 1 -91 86 -180 181 -188 155
-13 265 139 200 279 -43 94 -142 135 -249 104z m132 -110 c51 -40 50 -118 -1
-159 -65 -51 -162 -1 -163 83 0 81 99 127 164 76z"/>
</g>
</svg>
