<?xml version="1.0" standalone="no"?>
<!DOCTYPE svg PUBLIC "-//W3C//DTD SVG 20010904//EN"
 "http://www.w3.org/TR/2001/REC-SVG-20010904/DTD/svg10.dtd">
<svg version="1.0" xmlns="http://www.w3.org/2000/svg"
 width="720.000000pt" height="720.000000pt" viewBox="0 0 720.000000 720.000000"
 preserveAspectRatio="xMidYMid meet">
<metadata>
Created by potrace 1.11, written by Peter Selinger 2001-2013
</metadata>
<g transform="translate(0.000000,720.000000) scale(0.100000,-0.100000)"
fill="#000000" stroke="none">
<path d="M0 3600 l0 -3600 3600 0 3600 0 0 3600 0 3600 -3600 0 -3600 0 0
-3600z m2279 2790 c244 -25 442 -120 607 -292 112 -115 168 -210 238 -403 6
-16 11 -9 26 37 73 233 261 448 497 567 139 70 348 107 506 91 103 -10 157
-20 157 -29 0 -3 -186 -192 -412 -419 l-413 -412 73 36 c162 79 380 110 563
79 212 -35 381 -120 532 -267 54 -53 147 -173 147 -189 0 -5 -210 -9 -490 -9
-269 0 -490 -4 -490 -8 0 -5 14 -21 30 -37 38 -36 120 -154 152 -220 64 -129
98 -276 98 -428 0 -96 -14 -219 -27 -240 -3 -5 -217 202 -474 459 l-469 469
-470 -470 c-308 -308 -471 -464 -474 -455 -26 75 -34 275 -15 390 25 161 117
358 221 475 27 29 48 56 48 59 0 3 -220 6 -490 6 -269 0 -490 2 -490 6 0 3 18
32 40 64 89 131 254 264 409 330 128 55 229 74 386 73 161 0 277 -25 404 -86
l73 -34 -411 411 c-226 226 -411 414 -411 418 0 6 103 25 175 31 22 2 43 4 46
5 4 1 52 -3 108 -8z m3918 -1090 c107 -53 168 -152 167 -275 -1 -123 -9 -134
-335 -461 l-291 -291 -67 -5 c-36 -3 -80 -12 -97 -21 l-31 -16 -141 142 -141
142 19 55 c11 30 19 74 18 98 l-2 43 279 280 c154 154 294 289 311 299 89 56
208 60 311 10z m-712 -60 l70 -70 -100 -100 -100 -100 -72 72 -73 73 97 97
c54 54 100 98 103 98 3 0 37 -32 75 -70z m-2238 -382 l113 -113 0 -405 0 -405
-61 -45 c-122 -89 -204 -198 -287 -385 -29 -66 -66 -133 -83 -150 l-29 -30 0
710 0 710 112 112 c62 62 115 113 118 113 2 0 55 -51 117 -112z m1305 -108
c76 -21 138 -102 138 -180 0 -79 -74 -172 -145 -186 -115 -21 -216 48 -231
159 -12 87 40 173 122 202 48 17 68 18 116 5z m-2862 -92 c99 -51 137 -156 90
-253 -40 -83 -144 -125 -233 -96 -43 15 -97 68 -113 113 -37 99 14 208 113
243 55 20 93 18 143 -7z m4577 -200 c35 -34 63 -67 63 -73 0 -6 -43 -53 -95
-105 l-95 -95 -70 70 -70 70 97 97 c54 54 100 98 103 98 2 0 33 -28 67 -62z
m-969 -191 l192 -192 -615 -615 c-338 -338 -616 -612 -618 -610 -2 3 -21 40
-41 83 -50 105 -143 200 -245 250 -40 20 -81 37 -89 37 -13 0 1202 1235 1218
1239 3 0 92 -86 198 -192z m-1316 -366 c65 -17 178 -67 228 -100 12 -9 -37
-62 -255 -281 -235 -235 -274 -270 -300 -270 -49 0 -144 -28 -215 -62 -88 -43
-204 -159 -247 -249 -64 -130 -78 -265 -43 -403 27 -108 63 -169 150 -257 118
-119 242 -172 405 -172 105 0 179 19 277 70 88 46 194 156 238 247 29 61 59
174 60 221 0 13 96 116 265 285 299 299 269 284 328 165 133 -267 82 -581
-128 -796 -78 -81 -143 -122 -293 -188 -153 -67 -215 -119 -267 -225 -30 -59
-38 -89 -46 -171 -13 -136 -26 -202 -54 -290 -52 -158 -141 -299 -263 -417
-135 -131 -287 -217 -470 -265 -83 -22 -119 -26 -247 -26 -168 -1 -238 11
-385 66 -170 64 -241 117 -494 372 -125 127 -251 259 -278 295 -67 87 -153
265 -179 370 -27 109 -36 303 -19 408 77 483 460 838 952 881 155 14 224 39
304 113 56 51 78 88 135 219 59 136 102 201 192 286 84 79 200 144 309 173 99
26 241 26 340 1z m-190 -802 c270 -58 417 -352 301 -602 -74 -157 -207 -240
-388 -240 -271 0 -454 209 -423 482 28 241 269 411 510 360z m1648 -779 c50
-25 91 -86 97 -144 19 -168 -169 -272 -306 -169 -102 77 -87 252 26 312 51 27
132 27 183 1z m-3984 -529 c116 -53 144 -211 53 -302 -120 -120 -319 -36 -319
135 0 137 139 225 266 167z"/>
<path d="M2462 2127 l-102 -102 345 -345 345 -345 102 103 103 102 -345 345
-345 345 -103 -103z"/>
<path d="M3615 2881 c-22 -10 -57 -36 -77 -59 -65 -72 -74 -171 -22 -259 82
-140 296 -140 378 0 52 88 43 187 -22 259 -46 52 -103 78 -167 78 -27 0 -68
-9 -90 -19z"/>
</g>
</svg>
