<svg xmlns="http://www.w3.org/2000/svg" height="122.234" width="122.234" xml:space="preserve"><defs><clipPath id="a" clipPathUnits="userSpaceOnUse"><path d="M0 91.675h91.675V0H0Z"/></clipPath></defs><g clip-path="url(#a)" transform="matrix(1.33333 0 0 -1.33333 0 122.234)"><path style="fill:#ff9800;fill-opacity:1;fill-rule:nonzero;stroke:none" d="M0 0v-17.71c.395.334.735.737.942 1.231l.642 1.515A10.658 10.658 0 0 0 5.71-10.1V0L2.854 2.854Z" transform="translate(37.133 60.09)"/><path style="fill:#4caf50;fill-opacity:1;fill-rule:nonzero;stroke:none" d="M0 0c-3.16-3.161-4.199-7.63-3.141-11.662L8.6.078l11.741-11.74C21.399-7.63 20.36-3.161 17.2 0c-.035.035-.08.053-.116.089h12.45c-2.102 3.599-5.997 6.025-10.467 6.025-2.222 0-4.299-.603-6.088-1.648l10.426 10.426c-1.016.266-2.06.4-3.104.4a12.06 12.06 0 0 1-8.558-3.541A12.033 12.033 0 0 1 8.6 6.271a12.031 12.031 0 0 1-3.142 5.48 12.064 12.064 0 0 1-8.559 3.541c-1.044 0-2.087-.134-3.104-.4L4.221 4.466a12.027 12.027 0 0 1-6.088 1.648c-4.469 0-8.364-2.426-10.467-6.025H.116C.081.053.036.035 0 0" transform="translate(31.388 65.392)"/><path style="fill:#ff9800;fill-opacity:1;fill-rule:nonzero;stroke:none" d="m0 0-4.298 4.295-4.297 4.295 2.463 2.464 4.298-4.295 4.297-4.294zm15.249 16.514a7.101 7.101 0 0 0-2.08-4.883 7.115 7.115 0 0 0-5.062-2.09 7.112 7.112 0 0 0-5.059 2.09A7.112 7.112 0 0 0 .95 16.693a7.122 7.122 0 0 0 6.967 7.133l6.684 6.686c-1.468 1.077-3.213 1.692-5.044 1.692a8.953 8.953 0 0 1-1.873-.2 8.907 8.907 0 0 1-6.36-5.241l-.641-1.517a5.16 5.16 0 0 0-4.571-3.142 12.972 12.972 0 0 1-11.543-8.005A12.922 12.922 0 0 1-12.697.104l3.987-4.058a12.922 12.922 0 0 1 6.683-3.622 12.976 12.976 0 0 1 7.566.741 12.997 12.997 0 0 1 7.965 11.529 5.204 5.204 0 0 0 3.173 4.61l1.49.628a8.89 8.89 0 0 1 5.247 6.357c.524 2.469-.06 4.902-1.508 6.878z" transform="translate(39.038 17.671)"/><path style="fill:#bdbdbd;fill-opacity:1;fill-rule:nonzero;stroke:none" d="m0 0 1.746-1.745L4.21.72 2.464 2.464Z" transform="translate(75.717 54.885)"/><path style="fill:#bdbdbd;fill-opacity:1;fill-rule:nonzero;stroke:none" d="m0 0-1.75 1.748-2.464-2.464 1.75-1.748z" transform="translate(70.131 65.393)"/><path style="fill:#bdbdbd;fill-opacity:1;fill-rule:nonzero;stroke:none" d="M0 0c1.107-.326 2.158-.892 3.03-1.763l.004-.002c.855-.854 1.435-1.898 1.77-3.025L20.2 10.596 15.396 15.4Z" transform="translate(49.173 41.19)"/><path style="fill:#ff9800;fill-opacity:1;fill-rule:nonzero;stroke:none" d="M0 0a2.775 2.775 0 0 0 1.967.812c.71 0 1.42-.27 1.962-.808L3.933 0a2.761 2.761 0 0 0 .814-1.965c0-.741-.289-1.438-.814-1.964a2.787 2.787 0 0 0-3.933 0l-.002.002a2.766 2.766 0 0 0-.812 1.963C-.814-1.223-.525-.525 0 0m-3.406-1.964c0-1.432.558-2.781 1.571-3.793 2.032-2.032 5.574-2.025 7.6-.004a5.337 5.337 0 0 1 1.574 3.797 5.33 5.33 0 0 1-1.574 3.795 5.358 5.358 0 0 1-3.8 1.57 5.35 5.35 0 0 1-3.797-1.57 5.33 5.33 0 0 1-1.574-3.795" transform="translate(45.18 36.328)"/><path style="fill:#ff9800;fill-opacity:1;fill-rule:nonzero;stroke:none" d="M0 0a3.875 3.875 0 0 1-1.144 2.76c-1.478 1.474-4.048 1.474-5.522 0l-6.71-6.711.036-.411a3.036 3.036 0 0 0-.537-2.003l3.606-3.607c.58.406 1.288.596 2 .54l.417-.038 6.71 6.709A3.876 3.876 0 0 1 0 0" transform="translate(80.308 63.618)"/><path style="fill:#4caf50;fill-opacity:1;fill-rule:nonzero;stroke:none" d="M0 0a2.381 2.381 0 1 1 4.762 0A2.381 2.381 0 0 1 0 0" transform="translate(54.66 57.9)"/><path style="fill:#ff9800;fill-opacity:1;fill-rule:nonzero;stroke:none" d="M0 0a2.381 2.381 0 1 1 0 4.762A2.381 2.381 0 0 1 0 0" transform="translate(21.063 54.517)"/><path style="fill:#ff9800;fill-opacity:1;fill-rule:nonzero;stroke:none" d="M0 0a2.381 2.381 0 1 1 0-4.762A2.381 2.381 0 0 1 0 0" transform="translate(67.639 30.206)"/><path style="fill:#4caf50;fill-opacity:1;fill-rule:nonzero;stroke:none" d="M0 0a2.381 2.381 0 1 1 0-4.762A2.381 2.381 0 0 1 0 0" transform="translate(18.14 23.57)"/></g></svg>